[Header]
FileType HTR
DataType HTRS
FileVersion 1
NumSegments 64
NumFrames 4
DataFrameRate 30
EulerRotationOrder ZYX
CalibrationUnits mm
RotationUnits Degrees
GlobalAxisofGravity Y
BoneLengthAxis Y
ScaleFactor 1.0
[SegmentNames&Hierarchy]
Hips	GLOBAL
Spine	Hips
Spine1	Spine
Spine2	Spine1
Neck	Spine2
Head	Neck
LeftEye	Head
RightEye	Head
LeftShoulder	Spine2
LeftArm	LeftShoulder
LeftForeArm	LeftArm
LeftHand	LeftForeArm
LeftHandThumb1	LeftHand
LeftHandThumb2	LeftHandThumb1
LeftHandThumb3	LeftHandThumb2
LeftHandThumb4	LeftHandThumb3
LeftHandIndex1	LeftHand
LeftHandIndex2	LeftHandIndex1
LeftHandIndex3	LeftHandIndex2
LeftHandIndex4	LeftHandIndex3
LeftHandMiddle1	LeftHand
LeftHandMiddle2	LeftHandMiddle1
LeftHandMiddle3	LeftHandMiddle2
LeftHandMiddle4	LeftHandMiddle3
LeftHandRing1	LeftHand
LeftHandRing2	LeftHandRing1
LeftHandRing3	LeftHandRing2
LeftHandRing4	LeftHandRing3
LeftHandPinky1	LeftHand
LeftHandPinky2	LeftHandPinky1
LeftHandPinky3	LeftHandPinky2
LeftHandPinky4	LeftHandPinky3
RightShoulder	Spine2
RightArm	RightShoulder
RightForeArm	RightArm
RightHand	RightForeArm
RightHandPinky1	RightHand
RightHandPinky2	RightHandPinky1
RightHandPinky3	RightHandPinky2
RightHandPinky4	RightHandPinky3
RightHandRing1	RightHand
RightHandRing2	RightHandRing1
RightHandRing3	RightHandRing2
RightHandRing4	RightHandRing3
RightHandMiddle1	RightHand
RightHandMiddle2	RightHandMiddle1
RightHandMiddle3	RightHandMiddle2
RightHandMiddle4	RightHandMiddle3
RightHandIndex1	RightHand
RightHandIndex2	RightHandIndex1
RightHandIndex3	RightHandIndex2
RightHandIndex4	RightHandIndex3
RightHandThumb1	RightHand
RightHandThumb2	RightHandThumb1
RightHandThumb3	RightHandThumb2
RightHandThumb4	RightHandThumb3
LeftUpLeg	Hips
LeftLeg	LeftUpLeg
LeftFoot	LeftLeg
LeftToeBase	LeftFoot
RightUpLeg	Hips
RightLeg	RightUpLeg
RightFoot	RightLeg
RightToeBase	RightFoot
[BasePosition]
Hips	0	0	0	0	0	0	1
Spine	0	0	0	0	0	0	1
Spine1	0	0	0	0	0	0	1
Spine2	0	0	0	0	0	0	1
Neck	0	0	0	0	0	0	1
Head	0	0	0	0	0	0	1
LeftEye	0	0	0	0	0	0	1
RightEye	0	0	0	0	0	0	1
LeftShoulder	0	0	0	0	0	0	1
LeftArm	0	0	0	0	0	0	1
LeftForeArm	0	0	0	0	0	0	1
LeftHand	0	0	0	0	0	0	1
LeftHandThumb1	0	0	0	0	0	0	1
LeftHandThumb2	0	0	0	0	0	0	1
LeftHandThumb3	0	0	0	0	0	0	1
LeftHandThumb4	0	0	0	0	0	0	1
LeftHandIndex1	0	0	0	0	0	0	1
LeftHandIndex2	0	0	0	0	0	0	1
LeftHandIndex3	0	0	0	0	0	0	1
LeftHandIndex4	0	0	0	0	0	0	1
LeftHandMiddle1	0	0	0	0	0	0	1
LeftHandMiddle2	0	0	0	0	0	0	1
LeftHandMiddle3	0	0	0	0	0	0	1
LeftHandMiddle4	0	0	0	0	0	0	1
LeftHandRing1	0	0	0	0	0	0	1
LeftHandRing2	0	0	0	0	0	0	1
LeftHandRing3	0	0	0	0	0	0	1
LeftHandRing4	0	0	0	0	0	0	1
LeftHandPinky1	0	0	0	0	0	0	1
LeftHandPinky2	0	0	0	0	0	0	1
LeftHandPinky3	0	0	0	0	0	0	1
LeftHandPinky4	0	0	0	0	0	0	1
RightShoulder	0	0	0	0	0	0	1
RightArm	0	0	0	0	0	0	1
RightForeArm	0	0	0	0	0	0	1
RightHand	0	0	0	0	0	0	1
RightHandPinky1	0	0	0	0	0	0	1
RightHandPinky2	0	0	0	0	0	0	1
RightHandPinky3	0	0	0	0	0	0	1
RightHandPinky4	0	0	0	0	0	0	1
RightHandRing1	0	0	0	0	0	0	1
RightHandRing2	0	0	0	0	0	0	1
RightHandRing3	0	0	0	0	0	0	1
RightHandRing4	0	0	0	0	0	0	1
RightHandMiddle1	0	0	0	0	0	0	1
RightHandMiddle2	0	0	0	0	0	0	1
RightHandMiddle3	0	0	0	0	0	0	1
RightHandMiddle4	0	0	0	0	0	0	1
RightHandIndex1	0	0	0	0	0	0	1
RightHandIndex2	0	0	0	0	0	0	1
RightHandIndex3	0	0	0	0	0	0	1
RightHandIndex4	0	0	0	0	0	0	1
RightHandThumb1	0	0	0	0	0	0	1
RightHandThumb2	0	0	0	0	0	0	1
RightHandThumb3	0	0	0	0	0	0	1
RightHandThumb4	0	0	0	0	0	0	1
LeftUpLeg	0	0	0	0	0	0	1
LeftLeg	0	0	0	0	0	0	1
LeftFoot	0	0	0	0	0	0	1
LeftToeBase	0	0	0	0	0	0	1
RightUpLeg	0	0	0	0	0	0	1
RightLeg	0	0	0	0	0	0	1
RightFoot	0	0	0	0	0	0	1
RightToeBase	0	0	0	0	0	0	1
[Hips]
22	2.073803186	564.0281982	363.4120178	37.78957367	1.494305253	-0.7483362556	1.0
23	2.061092854	572.9397583	381.4225769	40.04735947	1.506559134	-0.7840486765	1.0
24	1.98271203	586.0155029	399.8793335	41.89503098	1.456051111	-0.7841808796	1.0
25	1.884746075	600.53302	417.3603821	43.26542664	1.370747685	-0.7488687634	1.0
[Spine]
22	0	101.8159943	1.315000057	8.55731678	-0.7216259241	1.507242084	1.0
23	0	101.8159943	1.315000057	11.14571571	-0.6486124396	1.569362998	1.0
24	0	101.8159943	1.315000057	14.05226135	-0.5603679419	1.555963278	1.0
25	0	101.8159943	1.315000057	17.1076889	-0.4847736061	1.48490572	1.0
[Spine1]
22	0	100.8349991	-10.00800037	-5.787912369	-3.374257722e-05	5.835241973e-05	1.0
23	0	100.8349991	-10.00800037	-3.510802269	-3.607884355e-05	5.693499043e-05	1.0
24	0	100.8349991	-10.00800037	-1.00051856	-3.858555283e-05	5.526512905e-05	1.0
25	0	100.8349991	-10.00800037	1.626737237	-4.112801616e-05	5.340141797e-05	1.0
[Spine2]
22	0	91	-13.73399925	1.761094213	1.213657885e-08	3.163497411e-07	1.0
23	0	91	-13.73399925	3.937667608	-1.094595303e-09	3.165775695e-07	1.0
24	0	91	-13.73399925	6.166631699	-1.464448562e-08	3.162549831e-07	1.0
25	0	91	-13.73399925	8.366932869	-2.798777032e-08	3.153739101e-07	1.0
[Neck]
22	0	166.7169952	-25.16200066	-17.06542015	4.074192645e-07	2.376920207e-07	1.0
23	0	166.7169952	-25.16200066	-17.02567101	4.07232335e-07	2.380060664e-07	1.0
24	0	166.7169952	-25.16200066	-16.71338081	4.057864942e-07	2.404395616e-07	1.0
25	0	166.7169952	-25.16200066	-16.15947342	4.0319091e-07	2.447356735e-07	1.0
[Head]
22	0	96.17900085	16.84999847	-39.82545853	-0.2284469604	-0.1216933951	1.0
23	0	96.17900085	16.84999847	-35.97958374	-0.2107226998	-0.1443472803	1.0
24	0	96.17900085	16.84999847	-29.86732674	-0.1834124774	-0.1725678146	1.0
25	0	96.17900085	16.84999847	-22.07861519	-0.1459793895	-0.2011027634	1.0
[LeftEye]
22	30.6760006	64.09500122	92.83599854	0	0	0	1.0
23	30.6760006	64.09500122	92.83599854	0	0	0	1.0
24	30.6760006	64.09500122	92.83599854	0	0	0	1.0
25	30.6760006	64.09500122	92.83599854	0	0	0	1.0
[RightEye]
22	-30.6760006	64.09500122	92.83499908	0	0	0	1.0
23	-30.6760006	64.09500122	92.83499908	0	0	0	1.0
24	-30.6760006	64.09500122	92.83499908	0	0	0	1.0
25	-30.6760006	64.09500122	92.83499908	0	0	0	1.0
[LeftShoulder]
22	45.70400238	109.4599991	-26.28000069	1.540167809	1.649744749	9.686306953	1.0
23	45.70400238	109.4599991	-26.28000069	1.04338491	-1.632425427	11.51965618	1.0
24	45.70400238	109.4599991	-26.28000069	0.1862507164	-5.251000881	14.51514435	1.0
25	45.70400238	109.4599991	-26.28000069	-1.224643946	-8.926427841	18.42638969	1.0
[LeftArm]
22	105.923996	-5.24600029	-22.32099915	-7.833589077	15.81949139	-27.78322601	1.0
23	105.923996	-5.24600029	-22.32099915	-11.68252563	7.091367722	-34.10339355	1.0
24	105.923996	-5.24600029	-22.32099915	-16.53948021	-4.011586666	-37.40228271	1.0
25	105.923996	-5.24600029	-22.32099915	-23.02674675	-15.68467903	-36.25577927	1.0
[LeftForeArm]
22	278.414978	-0.0009999999311	0	0.0001201752602	-89.90942383	-0.0004097785568	1.0
23	278.414978	-0.0009999999311	0	9.798935207e-05	-83.84165955	-0.0003529390087	1.0
24	278.414978	-0.0009999999311	0	1.035199693e-05	-75.16212463	-0.0002255672443	1.0
25	278.414978	-0.0009999999311	0	3.96498308e-06	-64.45472717	-0.0002166247577	1.0
[LeftHand]
22	283.2879944	0	0	-29.25564194	0.3560184836	25.93430328	1.0
23	283.2879944	0	0	-24.74134827	-2.663914442	19.87841225	1.0
24	283.2879944	0	0	-19.79114532	-5.232965946	12.6205349	1.0
25	283.2879944	0	0	-14.55491161	-7.066960812	4.536994457	1.0
[LeftHandThumb1]
22	24.6609993	-15.75	26.8239994	2.360733509	-1.566604376	-0.967461586	1.0
23	24.6609993	-15.75	26.8239994	3.832403898	0.3062789142	-1.602862597	1.0
24	24.6609993	-15.75	26.8239994	5.615646362	1.952869058	-3.028069973	1.0
25	24.6609993	-15.75	26.8239994	7.557350636	3.398881197	-5.067110062	1.0
[LeftHandThumb2]
22	32.29800034	-18.64699936	18.64699936	69.13871765	51.53470993	49.96227646	1.0
23	32.29800034	-18.64699936	18.64699936	71.15666199	51.76630783	51.69886398	1.0
24	32.29800034	-18.64699936	18.64699936	73.44369507	51.98345566	53.67048264	1.0
25	32.29800034	-18.64699936	18.64699936	75.74284363	52.15525818	55.65558624	1.0
[LeftHandThumb3]
22	26.52600098	-15.31499958	15.31499958	45.05694962	46.59996414	40.91621017	1.0
23	26.52600098	-15.31499958	15.31499958	40.80832672	44.96989822	38.07338715	1.0
24	26.52600098	-15.31499958	15.31499958	36.34542465	42.88422012	35.17214203	1.0
25	26.52600098	-15.31499958	15.31499958	31.92256737	40.38064575	32.39491653	1.0
[LeftHandThumb4]
22	19.54599953	-11.28499985	11.28499985	0	0	0	1.0
23	19.54599953	-11.28499985	11.28499985	0	0	0	1.0
24	19.54599953	-11.28499985	11.28499985	0	0	0	1.0
25	19.54599953	-11.28499985	11.28499985	0	0	0	1.0
[LeftHandIndex1]
22	91.09299469	-5.170999527	22.60099792	-5.614596844	18.163908	-68.83948517	1.0
23	91.09299469	-5.170999527	22.60099792	-5.872899532	19.04610252	-71.40958405	1.0
24	91.09299469	-5.170999527	22.60099792	-6.157213688	20.01310349	-74.25572205	1.0
25	91.09299469	-5.170999527	22.60099792	-6.443257332	20.98714447	-77.13891602	1.0
[LeftHandIndex2]
22	36.76399994	0	0	-2.873857975	5.024573326	-59.51651382	1.0
23	36.76399994	0	0	-2.745796919	4.9472332	-58.04318237	1.0
24	36.76399994	0	0	-2.580897808	4.840597153	-56.10905838	1.0
25	36.76399994	0	0	-2.386361837	4.704504967	-53.77073288	1.0
[LeftHandIndex3]
22	28.83100128	0	0	-0.682520926	2.740413427	-27.9789505	1.0
23	28.83100128	0	0	-0.6684955359	2.713310242	-27.67927361	1.0
24	28.83100128	0	0	-0.6742628217	2.724137545	-27.79979515	1.0
25	28.83100128	0	0	-0.6964836717	2.765744448	-28.26327133	1.0
[LeftHandIndex4]
22	23.92700005	0	0	0	0	0	1.0
23	23.92700005	0	0	0	0	0	1.0
24	23.92700005	0	0	0	0	0	1.0
25	23.92700005	0	0	0	0	0	1.0
[LeftHandMiddle1]
22	95.33399963	0	0	-5.128549576	4.29669857	-61.5486908	1.0
23	95.33399963	0	0	-5.438261986	4.614686966	-64.39725494	1.0
24	95.33399963	0	0	-5.798469543	5.042963982	-67.72972107	1.0
25	95.33399963	0	0	-6.180085659	5.548276901	-71.28643036	1.0
[LeftHandMiddle2]
22	36.98199844	0	0	-3.719049692	5.432448864	-68.77103424	1.0
23	36.98199844	0	0	-3.61425209	5.390750885	-67.66002655	1.0
24	36.98199844	0	0	-3.472103596	5.330225468	-66.13793945	1.0
25	36.98199844	0	0	-3.295867443	5.249028683	-64.22602081	1.0
[LeftHandMiddle3]
22	29.50900078	0	0	-3.958791018	5.519664288	-71.28504944	1.0
23	29.50900078	0	0	-3.637323618	5.400362968	-67.90757751	1.0
24	29.50900078	0	0	-3.236359119	5.219308853	-63.57172012	1.0
25	29.50900078	0	0	-2.786277294	4.971369267	-58.50628281	1.0
[LeftHandMiddle4]
22	28.3390007	0	0	0	0	0	1.0
23	28.3390007	0	0	0	0	0	1.0
24	28.3390007	0	0	0	0	0	1.0
25	28.3390007	0	0	0	0	0	1.0
[LeftHandRing1]
22	91.04499817	-0.4390000105	-18.65100098	-5.559545994	-3.506520987	-63.96759415	1.0
23	91.04499817	-0.4390000105	-18.65100098	-5.792396545	-3.403083324	-66.00040436	1.0
24	91.04499817	-0.4390000105	-18.65100098	-6.049901962	-3.252608299	-68.2587738	1.0
25	91.04499817	-0.4390000105	-18.65100098	-6.310286045	-3.090973377	-70.55078125	1.0
[LeftHandRing2]
22	31.54000092	0	0	-3.247104168	5.225681305	-63.69367599	1.0
23	31.54000092	0	0	-3.050329447	5.124038696	-61.51223755	1.0
24	31.54000092	0	0	-2.799934626	4.980038166	-58.6667366	1.0
25	31.54000092	0	0	-2.511446953	4.793169975	-55.2804451	1.0
[LeftHandRing3]
22	29.37700081	0	0	-2.586116552	4.844466209	-56.17290497	1.0
23	29.37700081	0	0	-2.41813159	4.727860451	-54.15941238	1.0
24	29.37700081	0	0	-2.206444025	4.567548752	-51.54455185	1.0
25	29.37700081	0	0	-1.966385722	4.366799831	-48.46307755	1.0
[LeftHandRing4]
22	26.47500038	0	0	0	0	0	1.0
23	26.47500038	0	0	0	0	0	1.0
24	26.47500038	0	0	0	0	0	1.0
25	26.47500038	0	0	0	0	0	1.0
[LeftHandPinky1]
22	80.77799988	-4.887000084	-38.06099701	-6.498658657	-16.42477036	-69.07228851	1.0
23	80.77799988	-4.887000084	-38.06099701	-6.712944984	-16.92450333	-70.61193085	1.0
24	80.77799988	-4.887000084	-38.06099701	-6.933590412	-17.38011551	-72.19594574	1.0
25	80.77799988	-4.887000084	-38.06099701	-7.141655445	-17.78493881	-73.6831665	1.0
[LeftHandPinky2]
22	36	0	0	-3.573923588	5.374909401	-67.23384094	1.0
23	36	0	0	-3.242799759	5.224043369	-63.65083313	1.0
24	36	0	0	-2.809899092	4.985352516	-58.77957535	1.0
25	36	0	0	-2.30991745	4.646605015	-52.82534409	1.0
[LeftHandPinky3]
22	21.14200211	0	0	-1.704681635	4.121160984	-44.93035507	1.0
23	21.14200211	0	0	-1.659227133	4.075127125	-44.29376602	1.0
24	21.14200211	0	0	-1.613491654	4.027860165	-43.64652634	1.0
25	21.14200211	0	0	-1.574002624	3.986200094	-43.08169174	1.0
[LeftHandPinky4]
22	19.75699997	0	0	0	0	0	1.0
23	19.75699997	0	0	0	0	0	1.0
24	19.75699997	0	0	0	0	0	1.0
25	19.75699997	0	0	0	0	0	1.0
[RightShoulder]
22	-45.70000076	109.4620056	-26.28000069	1.540154934	-1.649751902	-9.686309814	1.0
23	-45.70000076	109.4620056	-26.28000069	1.043372512	1.632421255	-11.51966381	1.0
24	-45.70000076	109.4620056	-26.28000069	0.1862248927	5.250994682	-14.51514721	1.0
25	-45.70000076	109.4620056	-26.28000069	-1.224693298	8.92641449	-18.42638397	1.0
[RightArm]
22	-105.9280014	-5.248000145	-22.32099915	-7.833577156	-15.81947327	27.78342056	1.0
23	-105.9280014	-5.248000145	-22.32099915	-11.68248749	-7.091344357	34.10359573	1.0
24	-105.9280014	-5.248000145	-22.32099915	-16.53937149	4.011615276	37.40250778	1.0
25	-105.9280014	-5.248000145	-22.32099915	-23.02655983	15.68473053	36.25603485	1.0
[RightForeArm]
22	-278.414978	0	0	0.0005754259764	89.90931702	0.0004351486277	1.0
23	-278.414978	0	0	0.0002307952091	83.84149933	0.000193312022	1.0
24	-278.414978	0	0	-8.437225188e-05	75.16190338	-5.661672549e-05	1.0
25	-278.414978	0	0	-2.643377229e-05	64.45449829	-2.884566493e-05	1.0
[RightHand]
22	-283.2879944	0	0.0009999999311	-28.07744217	-0.1230968013	-25.21055222	1.0
23	-283.2879944	0	0.0009999999311	-23.52449417	2.838885307	-19.13772964	1.0
24	-283.2879944	0	0.0009999999311	-18.54025841	5.343242168	-11.86529541	1.0
25	-283.2879944	0	0.0009999999311	-13.27925491	7.108004093	-3.772228956	1.0
[RightHandPinky1]
22	-80.76699829	-4.885000229	-38.06000137	-5.614356995	17.57541466	68.23510742	1.0
23	-80.76699829	-4.885000229	-38.06000137	-5.796842575	18.08270454	69.78173065	1.0
24	-80.76699829	-4.885000229	-38.06000137	-5.984311104	18.54524422	71.37385559	1.0
25	-80.76699829	-4.885000229	-38.06000137	-6.160869122	18.95576477	72.86932373	1.0
[RightHandPinky2]
22	-36	0	0.0009999999311	-2.841428518	-4.272352219	67.2727356	1.0
23	-36	0	0.0009999999311	-2.578398943	-4.152467728	63.69421768	1.0
24	-36	0	0.0009999999311	-2.234471321	-3.962774515	58.82789993	1.0
25	-36	0	0.0009999999311	-1.83716917	-3.693529367	52.87786484	1.0
[RightHandPinky3]
22	-21.14200211	0	0	-1.357147336	-3.276998043	44.98503494	1.0
23	-21.14200211	0	0	-1.320991516	-3.240417242	44.348423	1.0
24	-21.14200211	0	0	-1.284610868	-3.202847004	43.7011261	1.0
25	-21.14200211	0	0	-1.253200769	-3.169729233	43.13621521	1.0
[RightHandPinky4]
22	-19.75699997	0	0	0	0	0	1.0
23	-19.75699997	0	0	0	0	0	1.0
24	-19.75699997	0	0	0	0	0	1.0
25	-19.75699997	0	0	0	0	0	1.0
[RightHandRing1]
22	-91.03599548	-0.4390000105	-18.65100098	-4.763473034	4.628008366	63.19273758	1.0
23	-91.03599548	-0.4390000105	-18.65100098	-4.956100464	4.537945747	65.22900391	1.0
24	-91.03599548	-0.4390000105	-18.65100098	-5.168410301	4.400659561	67.49129486	1.0
25	-91.03599548	-0.4390000105	-18.65100098	-5.382460594	4.250631809	69.787117	1.0
[RightHandRing2]
22	-31.54000092	0	0	-2.583245993	-4.154456615	63.73709488	1.0
23	-31.54000092	0	0	-2.426906824	-4.073723793	61.55805206	1.0
24	-31.54000092	0	0	-2.227932453	-3.959342957	58.71526337	1.0
25	-31.54000092	0	0	-1.998634577	-3.81090641	55.33159256	1.0
[RightHandRing3]
22	-29.37700081	0	0	-2.057988167	-3.851671696	56.22344208	1.0
23	-29.37700081	0	0	-1.924456716	-3.759048939	54.21129608	1.0
24	-29.37700081	0	0	-1.756171584	-3.631691217	51.59777069	1.0
25	-29.37700081	0	0	-1.565297723	-3.47218132	48.51729965	1.0
[RightHandRing4]
22	-26.47500038	0	0	0	0	0	1.0
23	-26.47500038	0	0	0	0	0	1.0
24	-26.47500038	0	0	0	0	0	1.0
25	-26.47500038	0	0	0	0	0	1.0
[RightHandMiddle1]
22	-95.32500458	0	0	-4.378855228	-3.192743778	60.83118057	1.0
23	-95.32500458	0	0	-4.633161068	-3.49007988	63.67821121	1.0
24	-95.32500458	0	0	-4.92736578	-3.897761583	67.0083313	1.0
25	-95.32500458	0	0	-5.237344742	-4.385239601	70.56163025	1.0
[RightHandMiddle2]
22	-36.98199844	0	0	-2.958157063	-4.318666458	68.80797577	1.0
23	-36.98199844	0	0	-2.874921799	-4.285570145	67.6984787	1.0
24	-36.98199844	0	0	-2.762012959	-4.237493992	66.17836761	1.0
25	-36.98199844	0	0	-2.622004032	-4.172981739	64.26879883	1.0
[RightHandMiddle3]
22	-29.50900078	0	0	-3.148582935	-4.38993597	71.31835175	1.0
23	-29.50900078	0	0	-2.893237591	-4.295206547	67.94574738	1.0
24	-29.50900078	0	0	-2.57470727	-4.151426792	63.61530304	1.0
25	-29.50900078	0	0	-2.21708703	-3.954495907	58.5549736	1.0
[RightHandMiddle4]
22	-28.3390007	0	0.0009999999311	0	0	0	1.0
23	-28.3390007	0	0.0009999999311	0	0	0	1.0
24	-28.3390007	0	0.0009999999311	0	0	0	1.0
25	-28.3390007	0	0.0009999999311	0	0	0	1.0
[RightHandIndex1]
22	-91.08300018	-5.167999744	22.60099792	-4.73429966	-17.0123806	68.18791962	1.0
23	-91.08300018	-5.167999744	22.60099792	-4.939517975	-17.88235474	70.74576569	1.0
24	-91.08300018	-5.167999744	22.60099792	-5.163911819	-18.8385601	73.57609558	1.0
25	-91.08300018	-5.167999744	22.60099792	-5.388134956	-19.80453682	76.44098663	1.0
[RightHandIndex2]
22	-36.76399994	0	0	-2.286679268	-3.994726896	59.56432724	1.0
23	-36.76399994	0	0	-2.18490839	-3.933298111	58.09227753	1.0
24	-36.76399994	0	0	-2.053839207	-3.848599911	56.15965652	1.0
25	-36.76399994	0	0	-1.899191856	-3.740490198	53.82283783	1.0
[RightHandIndex3]
22	-28.83100128	0	0	-0.5436927676	-2.17946744	28.02428055	1.0
23	-28.83100128	0	0	-0.5325229764	-2.157905579	27.72428131	1.0
24	-28.83100128	0	0	-0.5371126533	-2.166508198	27.84493828	1.0
25	-28.83100128	0	0	-0.5548092127	-2.199601173	28.30891037	1.0
[RightHandIndex4]
22	-23.92700005	0	0	0	0	0	1.0
23	-23.92700005	0	0	0	0	0	1.0
24	-23.92700005	0	0	0	0	0	1.0
25	-23.92700005	0	0	0	0	0	1.0
[RightHandThumb1]
22	-24.64799881	-15.72700024	26.82600021	1.292668819	3.529607296	1.579974294	1.0
23	-24.64799881	-15.72700024	26.82600021	2.721710443	1.634322524	2.297881842	1.0
24	-24.64799881	-15.72700024	26.82600021	4.467114925	-0.02784813382	3.810447216	1.0
25	-24.64799881	-15.72700024	26.82600021	6.375833988	-1.483074784	5.936670303	1.0
[RightHandThumb2]
22	-32.29800034	-18.64699936	18.64699936	71.76933289	-52.89360046	-52.68992996	1.0
23	-32.29800034	-18.64699936	18.64699936	73.86303711	-53.0906601	-54.49569321	1.0
24	-32.29800034	-18.64699936	18.64699936	76.23266602	-53.26705551	-56.54249191	1.0
25	-32.29800034	-18.64699936	18.64699936	78.61115265	-53.39625168	-58.59951019	1.0
[RightHandThumb3]
22	-26.52600098	-15.31399918	15.31399918	53.59980774	-49.40450668	-47.80521011	1.0
23	-26.52600098	-15.31399918	15.31399918	48.86123276	-48.11571121	-44.485569	1.0
24	-26.52600098	-15.31399918	15.31399918	43.84101105	-46.37190628	-41.04171753	1.0
25	-26.52600098	-15.31399918	15.31399918	38.83527756	-44.18782425	-37.69726563	1.0
[RightHandThumb4]
22	-19.54599953	-11.28499985	11.28499985	0	0	0	1.0
23	-19.54599953	-11.28499985	11.28499985	0	0	0	1.0
24	-19.54599953	-11.28499985	11.28499985	0	0	0	1.0
25	-19.54599953	-11.28499985	11.28499985	0	0	0	1.0
[LeftUpLeg]
22	82.07800293	-67.51699829	-15.99599934	-49.631073	-6.203423023	8.488694191	1.0
23	82.07800293	-67.51699829	-15.99599934	-51.56786346	-5.738787651	8.819675446	1.0
24	82.07800293	-67.51699829	-15.99599934	-53.11886597	-5.044323921	8.982376099	1.0
25	82.07800293	-67.51699829	-15.99599934	-54.00073242	-4.228939056	8.960442543	1.0
[LeftLeg]
22	0	-443.7049866	2.845999956	98.09494781	10.23821449	-5.062418461	1.0
23	0	-443.7049866	2.845999956	97.85710907	10.48373413	-5.507898808	1.0
24	0	-443.7049866	2.845999956	96.98995972	10.57868767	-6.03869915	1.0
25	0	-443.7049866	2.845999956	95.43035126	10.48089886	-6.608597279	1.0
[LeftFoot]
22	0	-444.2789917	-29.8219986	-82.65620422	4.621301651	3.574383497	1.0
23	0	-444.2789917	-29.8219986	-75.5634079	4.87804985	3.481348038	1.0
24	0	-444.2789917	-29.8219986	-67.73012543	5.011929512	3.41301465	1.0
25	0	-444.2789917	-29.8219986	-60.65056229	5.038612366	3.404175282	1.0
[LeftToeBase]
22	0	-87.28699493	107.1060028	-11.70811272	8.75152395e-08	3.293544921e-07	1.0
23	0	-87.28699493	107.1060028	-20.50160217	4.340322732e-07	-5.892286481e-07	1.0
24	0	-87.28699493	107.1060028	-28.50570297	1.030409862e-06	-7.104229667e-07	1.0
25	0	-87.28699493	107.1060028	-35.08959961	8.20130424e-07	7.450209978e-07	1.0
[RightUpLeg]
22	-82.07800293	-67.51699829	-15.99599934	-128.0404663	-5.400407791	-16.97273064	1.0
23	-82.07800293	-67.51699829	-15.99599934	-129.0858612	-5.628702641	-16.05164146	1.0
24	-82.07800293	-67.51699829	-15.99599934	-129.1875458	-5.622285366	-15.05964565	1.0
25	-82.07800293	-67.51699829	-15.99599934	-128.611557	-5.49157238	-14.05620861	1.0
[RightLeg]
22	0	-443.7049866	2.861999989	78.86027527	-9.046649933	1.340555072	1.0
23	0	-443.7049866	2.861999989	79.56813049	-8.918055534	2.783435583	1.0
24	0	-443.7049866	2.861999989	79.76150513	-8.840733528	4.081264019	1.0
25	0	-443.7049866	2.861999989	79.65345764	-8.809966087	5.030117989	1.0
[RightFoot]
22	0	-444.2770081	-29.83799934	10.8369751	-10.48827362	6.54541111	1.0
23	0	-444.2770081	-29.83799934	8.630783081	-11.24320221	6.066858292	1.0
24	0	-444.2770081	-29.83799934	6.465177059	-11.69197941	5.3823452	1.0
25	0	-444.2770081	-29.83799934	4.516654015	-11.70354462	4.586904049	1.0
[RightToeBase]
22	0	-87.28699493	107.1060028	-1.515573604e-05	-2.909377805e-08	-1.999551955e-07	1.0
23	0	-87.28699493	107.1060028	-1.515573604e-05	-2.909377805e-08	-1.999551955e-07	1.0
24	0	-87.28699493	107.1060028	-1.515573604e-05	-2.909377805e-08	-1.999551955e-07	1.0
25	0	-87.28699493	107.1060028	-1.515573604e-05	-2.909377805e-08	-1.999551955e-07	1.0
[EndOfFile]
